<svg xmlns="http://www.w3.org/2000/svg" version="1.1" xmlns:xlink="http://www.w3.org/1999/xlink" xmlns:svgjs="http://svgjs.dev/svgjs" width="100%" height="100%" viewBox="0 0 1000 600"><rect width="1000" height="600" x="0" y="0" fill="#141a46"/><g><circle r="166.66666666666666" cx="370.409189860026" cy="392.63135406336676" fill="#000000" transform="matrix(0.6135194632183445,0,0,0.6135194632183445,0,59.11299363348358)"/><path d="M329.89988109130064 465.79896051165355L264.35769334497365 465.79896051165355Q261.3131530109507 465.79896051165355 261.3131530109507 463.5719356376923L261.3131530109507 463.5719356376923Q261.3131530109507 461.73957339962294 263.9348405208038 461.11938925750724L263.9348405208038 461.11938925750724L268.61441177495016 460.3300639857234Q272.87113020492666 459.51254852566177 274.19606905399223 458.07484892348424Q275.52100790305775 456.6653395095848 275.52100790305775 452.4086210796082L275.52100790305775 452.4086210796082L275.52100790305775 333.05136391059807Q275.52100790305775 328.79464548062157 274.19606905399223 327.38513606672205Q272.87113020492666 325.9474364645446 268.61441177495016 325.12992100448287L268.61441177495016 325.12992100448287L263.9348405208038 324.34059573269917Q261.3131530109507 323.72041159058335 261.3131530109507 321.88804935251403L261.3131530109507 321.88804935251403Q261.3131530109507 319.6610244785528 264.35769334497365 319.6610244785528L264.35769334497365 319.6610244785528L301.4841713070866 319.6610244785528Q304.52871164110957 319.6610244785528 304.52871164110957 322.0853806704599L304.52871164110957 322.0853806704599Q304.52871164110957 323.9177429085293 302.30168676714834 324.34059573269917L302.30168676714834 324.34059573269917L296.8327902412183 325.12992100448287Q292.5760718112418 325.7501051465987 291.25113296217626 327.38513606672205Q289.9261941131107 328.9919767985675 289.9261941131107 333.248695228544L289.9261941131107 333.248695228544L289.9261941131107 446.91153436540014Q289.9261941131107 454.2409833176776 294.0983419782532 457.4828549696465Q298.2422996551178 460.72472662161533 304.52871164110957 460.72472662161533L304.52871164110957 460.72472662161533Q309.20828289525593 460.72472662161533 314.1697560321822 458.807793818712Q319.15941935738647 456.8626708275307 323.218806469417 451.47834486643455Q327.27819358144757 446.12220909361645 329.3078871374629 435.7482198073161L329.3078871374629 435.7482198073161L331.929574647316 422.16054905732483Q332.54975878943173 419.5106713591938 334.97411498133886 419.5106713591938L334.97411498133886 419.5106713591938Q337.8213239974159 419.5106713591938 337.426661361524 422.97806451738654L337.426661361524 422.97806451738654L334.97411498133886 461.11938925750724Q334.579452345447 465.79896051165355 329.89988109130064 465.79896051165355L329.89988109130064 465.79896051165355ZM362.995162129661 467.6313227497229L362.995162129661 467.6313227497229Q358.5411123817386 467.6313227497229 355.38381129460373 464.6713529805339Q352.22651020746883 461.73957339962294 352.22651020746883 456.8626708275307L352.22651020746883 456.8626708275307Q352.22651020746883 452.21128976166233 355.38381129460373 449.2513199924733Q358.5411123817386 446.3195404115624 362.995162129661 446.3195404115624L362.995162129661 446.3195404115624Q367.05454924169163 446.3195404115624 370.2964208936605 449.2513199924733Q373.53829254562936 452.21128976166233 373.53829254562936 456.8626708275307L373.53829254562936 456.8626708275307Q373.53829254562936 461.73957339962294 370.2964208936605 464.6713529805339Q367.05454924169163 467.6313227497229 362.995162129661 467.6313227497229ZM432.8222584942426 467.6313227497229L432.8222584942426 467.6313227497229Q423.068453350058 467.6313227497229 414.555016490105 461.8523341527349Q406.013389441874 456.04515536746896 399.6424068910482 445.89668758739253Q393.2432341519445 435.7482198073161 389.69127042891773 422.0477883042129Q386.13930670589093 408.3473568011097 386.13930670589093 392.53266117715725L386.13930670589093 392.53266117715725Q386.13930670589093 376.6897753649268 389.69127042891773 363.10210461493557Q393.2432341519445 349.48624367666633 399.6424068910482 339.2532053317559Q406.013389441874 328.9919767985675 414.555016490105 323.3257489546915Q423.068453350058 317.6313309225375 432.8222584942426 317.6313309225375L432.8222584942426 317.6313309225375Q442.54787345014915 317.6313309225375 450.9767397452682 323.3257489546915Q459.4056060403873 328.9919767985675 465.88934934432496 339.2532053317559Q472.4012828365407 349.48624367666633 475.9532465595675 363.10210461493557Q479.5052102825942 376.6897753649268 479.5052102825942 392.53266117715725L479.5052102825942 392.53266117715725Q479.5052102825942 408.3473568011097 475.9532465595675 422.0477883042129Q472.4012828365407 435.7482198073161 465.88934934432496 445.89668758739253Q459.4056060403873 456.04515536746896 450.9767397452682 461.8523341527349Q442.54787345014915 467.6313227497229 432.8222584942426 467.6313227497229ZM432.8222584942426 462.13423603551485L432.8222584942426 462.13423603551485Q447.2274447042955 462.13423603551485 455.34621892835673 444.88184080938487Q463.46499315241783 427.6294455832549 463.46499315241783 392.53266117715725L463.46499315241783 392.53266117715725Q463.46499315241783 357.40768658278154 455.34621892835673 340.2680521097635Q447.2274447042955 323.1002274484676 432.8222584942426 323.1002274484676L432.8222584942426 323.1002274484676Q418.61440360213555 323.1002274484676 410.38286862496244 340.2680521097635Q402.17952383606735 357.40768658278154 402.17952383606735 392.53266117715725L402.17952383606735 392.53266117715725Q402.17952383606735 427.6294455832549 410.38286862496244 444.88184080938487Q418.61440360213555 462.13423603551485 432.8222584942426 462.13423603551485Z " fill="#ffffff" transform="matrix(0.6135194632183445,0,0,0.6135194632183445,0,59.11299363348358)"/><path d="M654.6884532810897 467.6313227497229L654.6884532810897 467.6313227497229Q644.962838325183 467.6313227497229 637.2387267370138 461.11938925750724Q629.5428053371224 454.63564595356945 624.9759948360881 442.7675766885356Q620.4091843350536 430.89950742350175 620.4091843350536 415.25395292921723L620.4091843350536 415.25395292921723Q620.4091843350536 399.2137357990409 625.0605654009221 387.03557446294917Q629.7401366550685 374.8574131268574 637.8589108791296 367.97900718702783Q645.9776851031907 361.07241105892024 655.9288215653212 361.07241105892024L655.9288215653212 361.07241105892024Q667.881461395189 361.07241105892024 675.2954809123005 370.9107867679388Q682.7095004294118 380.74916247695734 682.7095004294118 402.8784602751796L682.7095004294118 402.8784602751796Q682.7095004294118 409.5877250853413 677.6352665393736 409.5877250853413L677.6352665393736 409.5877250853413L639.0710889750832 409.5877250853413Q635.0117018630526 409.5877250853413 635.0117018630526 414.2391061512096L635.0117018630526 414.2391061512096Q635.0117018630526 435.7482198073161 641.2981138490443 446.5168717295083Q647.5845258350362 457.2855236517005 657.3383309792207 457.2855236517005L657.3383309792207 457.2855236517005Q665.06244256739 457.2855236517005 669.9111549512043 451.78843693749246Q674.7880575232966 446.3195404115624 677.8325978573196 433.323863615409L677.8325978573196 433.323863615409Q678.4527819994353 431.0968387414477 680.4824755554506 431.0968387414477L680.4824755554506 431.0968387414477Q682.9068317473577 431.0968387414477 682.3148377935199 435.1562258534783L682.3148377935199 435.1562258534783Q679.0447759532731 453.22613653966994 671.9408485072196 460.4146345505575Q664.8369210611661 467.6313227497229 654.6884532810897 467.6313227497229ZM638.4509048329674 404.513491195303L638.4509048329674 404.513491195303L658.9733618993441 404.513491195303Q668.6989768552507 404.513491195303 668.6989768552507 394.3650234152266L668.6989768552507 394.3650234152266Q668.6989768552507 381.1720153011272 665.4571052032819 373.64523503090385Q662.2152335513131 366.1466449489585 655.7033000590973 366.1466449489585L655.7033000590973 366.1466449489585Q647.8100473412601 366.1466449489585 642.425721380164 375.2802659510273Q637.0413954190678 384.4138869530961 635.4063644989444 401.24342935505615L635.4063644989444 401.24342935505615Q635.0117018630526 404.513491195303 638.4509048329674 404.513491195303ZM745.8273319838318 467.6313227497229L745.8273319838318 467.6313227497229Q730.801961631663 467.6313227497229 719.554076508745 458.3003704297082Q708.2780011975489 448.9412279214155 702.104349964669 431.9989247663434Q695.9025085435112 415.05662161127134 695.9025085435112 391.91247703504143L695.9025085435112 391.91247703504143Q695.9025085435112 369.58584791887324 702.6963439185068 352.8408760817471Q709.4901792935025 336.095904244621 720.9635859226444 326.87771267771825Q732.4369925517864 317.6313309225375 746.4475161259475 317.6313309225375L746.4475161259475 317.6313309225375Q754.7636216679546 317.6313309225375 761.0500336539463 319.15360108954894Q767.3364456399381 320.6758712565604 772.2133482120305 323.1002274484676L772.2133482120305 323.1002274484676Q774.6658945922156 324.53792705064507 774.6658945922156 327.38513606672205L774.6658945922156 327.38513606672205L775.2578885460534 358.22520204284325Q775.2578885460534 361.66440501275804 772.8335323541462 361.66440501275804L772.8335323541462 361.66440501275804Q770.606507480185 361.66440501275804 769.9863233380693 359.04271750290496L769.9863233380693 359.04271750290496L767.9566297820539 351.5159372326816Q763.6999113520775 335.70124160872916 758.1182540730354 329.6121609406833Q752.5365967939933 323.52308027263746 744.812485205824 323.52308027263746L744.812485205824 323.52308027263746Q730.604630313717 323.52308027263746 721.1609172405904 341.08556756982523Q711.7453943557416 358.6198646787351 711.7453943557416 391.91247703504143L711.7453943557416 391.91247703504143Q711.7453943557416 414.6619589753795 716.509536174722 430.279323281386Q721.2736779937023 445.89668758739253 728.8850288287597 453.81813049350774Q736.4963796638169 461.73957339962294 745.00981652377 461.73957339962294L745.00981652377 461.73957339962294Q754.1434375258387 461.73957339962294 759.7250948048809 456.04515536746896Q765.3067520839229 450.37892752359295 769.1688078780076 434.14137907547064L769.1688078780076 434.14137907547064L771.6213542581927 424.19024261334016Q772.2133482120305 421.14570227931716 774.8632259101615 421.54036491520907L774.8632259101615 421.54036491520907Q777.0902507841228 421.96321773937893 777.0902507841228 425.0077580734019L777.0902507841228 425.0077580734019L776.272735324061 457.8775176055383Q776.272735324061 460.72472662161533 773.6510478142079 462.13423603551485L773.6510478142079 462.13423603551485Q768.7741452421157 464.5867824157 762.1776411850659 466.10905258271146Q755.5811371280163 467.6313227497229 745.8273319838318 467.6313227497229ZM826.4230802706054 467.6313227497229L826.4230802706054 467.6313227497229Q816.049090984305 467.6313227497229 807.8457461954099 460.6119658685034Q799.6142112182368 453.62079917556184 794.7373086461446 441.4426378394701Q789.8885962623302 429.2644765033783 789.8885962623302 414.2391061512096L789.8885962623302 414.2391061512096Q789.8885962623302 399.2137357990409 794.7373086461446 387.2610959691731Q799.6142112182368 375.2802659510273 807.930316760244 368.1763385049738Q816.274612490529 361.07241105892024 826.4230802706054 361.07241105892024L826.4230802706054 361.07241105892024Q836.7688793686278 361.07241105892024 844.972224157523 368.1763385049738Q853.203759134696 375.2802659510273 858.0806617067883 387.2610959691731Q862.9575642788806 399.2137357990409 862.9575642788806 414.2391061512096L862.9575642788806 414.2391061512096Q862.9575642788806 429.2644765033783 858.1652322716222 441.4426378394701Q853.4010904526419 453.62079917556184 845.0849849106348 460.6119658685034Q836.7688793686278 467.6313227497229 826.4230802706054 467.6313227497229ZM826.4230802706054 462.55708885968465L826.4230802706054 462.55708885968465Q847.5093411025421 462.55708885968465 847.5093411025421 414.2391061512096L847.5093411025421 414.2391061512096Q847.5093411025421 366.1466449489585 826.4230802706054 366.1466449489585L826.4230802706054 366.1466449489585Q805.3086292503908 366.1466449489585 805.3086292503908 414.2391061512096L805.3086292503908 414.2391061512096Q805.3086292503908 462.55708885968465 826.4230802706054 462.55708885968465ZM908.4001477830006 465.79896051165355L874.1208788369647 465.79896051165355Q871.0763385029418 465.79896051165355 871.0763385029418 463.5719356376923L871.0763385029418 463.5719356376923Q871.0763385029418 461.73957339962294 873.6980260127948 461.11938925750724L873.6980260127948 461.11938925750724L876.1505723929799 460.72472662161533Q880.4072908229565 459.9072111615536 881.732229672022 458.18760967659625Q883.0289783328096 456.4680081916388 883.0289783328096 452.21128976166233L883.0289783328096 452.21128976166233L883.0289783328096 383.99103412892623Q883.0289783328096 380.3544998410655 881.929560989968 379.029560992Q880.8019534588484 377.70462214293445 877.9547444427714 377.30995950704255L877.9547444427714 377.30995950704255L873.6980260127948 376.6897753649268Q871.0763385029418 376.49244404698084 871.0763385029418 374.46275049096556L871.0763385029418 374.46275049096556Q871.0763385029418 372.82771957084213 874.3182101549106 372.23572561700433L874.3182101549106 372.23572561700433Q880.6046221409024 371.2208788389967 883.9592545459832 368.9938539650355Q887.313886951064 366.73863890279625 890.9504212389248 363.4967672508274L890.9504212389248 363.4967672508274Q892.7827834769942 361.66440501275804 893.9949615729477 361.66440501275804L893.9949615729477 361.66440501275804Q895.8273238110171 361.66440501275804 895.8273238110171 364.1169513929432L895.8273238110171 364.1169513929432L895.8273238110171 373.250572395012Q895.8273238110171 374.6600818089115 897.0395019069706 375.36483651586127Q898.2516800029242 376.097781411089 899.6893796051017 374.6600818089115L899.6893796051017 374.6600818089115Q908.0054851471089 366.73863890279625 914.2073265682666 363.9196200749973Q920.3809778011464 361.07241105892024 926.6673897871383 361.07241105892024L926.6673897871383 361.07241105892024Q932.5591391372382 361.07241105892024 937.1259496382726 364.2015219577772Q941.692760139307 367.35882304491207 943.9197850132682 373.64523503090385L943.9197850132682 373.64523503090385Q944.5399691553839 375.2802659510273 946.0622393223955 375.5903580220852Q947.584509489407 375.8722599048651 948.9940189033064 374.46275049096556L948.9940189033064 374.46275049096556Q957.3383146335915 366.73863890279625 963.4273953016375 363.9196200749973Q969.5164759696834 361.07241105892024 975.802887955675 361.07241105892024L975.802887955675 361.07241105892024Q984.3163248156281 361.07241105892024 989.7006507767242 367.471583798024Q995.0849767378203 373.8425663488498 995.0849767378203 386.2462491911654L995.0849767378203 386.2462491911654L995.0849767378203 452.21128976166233Q995.0849767378203 456.4680081916388 996.4099155868857 458.18760967659625Q997.7066642476734 459.9072111615536 1001.9915728659279 460.5273953036694L1001.9915728659279 460.5273953036694L1006.4456226138503 461.11938925750724Q1008.6726474878114 461.54224208167705 1008.6726474878114 463.5719356376923L1008.6726474878114 463.5719356376923Q1008.6726474878114 465.79896051165355 1006.2482912959044 465.79896051165355L1006.2482912959044 465.79896051165355L971.5461695256986 465.79896051165355Q968.6989605096214 465.79896051165355 968.6989605096214 463.5719356376923L968.6989605096214 463.5719356376923Q968.6989605096214 461.54224208167705 970.9259853835828 461.11938925750724L970.9259853835828 461.11938925750724L973.7731943996598 460.72472662161533Q978.4245754655282 460.1045424794995 979.8622750677056 458.3003704297082Q981.2717844816051 456.4680081916388 981.2717844816051 452.21128976166233L981.2717844816051 452.21128976166233L981.2717844816051 388.47327406512665Q981.2717844816051 378.52213760299617 977.7198207585784 374.46275049096556Q974.1678570355516 370.40336337893496 968.0787763675057 370.40336337893496L968.0787763675057 370.40336337893496Q961.9896956994598 370.40336337893496 957.0282225625336 374.1526584199077Q952.0385592373293 377.90195346088035 948.9940189033064 384.1037948820382Q945.9494785692834 390.305636303196 945.9494785692834 397.8042263851414L945.9494785692834 397.8042263851414L945.9494785692834 452.21128976166233Q945.9494785692834 456.4680081916388 947.3871781714611 458.18760967659625Q948.7966875853605 459.9072111615536 953.278927521561 460.5273953036694L953.278927521561 460.5273953036694L957.7329772694834 461.11938925750724Q959.9600021434446 461.54224208167705 959.9600021434446 463.5719356376923L959.9600021434446 463.5719356376923Q959.9600021434446 465.79896051165355 957.5356459515375 465.79896051165355L957.5356459515375 465.79896051165355L923.0308554992775 465.79896051165355Q920.1836464832005 465.79896051165355 920.1836464832005 463.5719356376923L920.1836464832005 463.5719356376923Q920.1836464832005 461.54224208167705 922.4106713571618 461.11938925750724L922.4106713571618 461.11938925750724L925.2578803732388 460.72472662161533Q929.5145988032152 460.1045424794995 930.8395376522808 458.3003704297082Q932.1644765013464 456.4680081916388 932.1644765013464 452.21128976166233L932.1644765013464 452.21128976166233L932.1644765013464 388.47327406512665Q932.1644765013464 378.52213760299617 928.6125127783196 374.46275049096556Q925.0605490552928 370.40336337893496 918.9714683872469 370.40336337893496L918.9714683872469 370.40336337893496Q912.8823877192011 370.40336337893496 907.8927243939968 374.1526584199077Q902.9312512570707 377.90195346088035 899.8867109230476 384.1037948820382Q896.8421705890247 390.305636303196 896.8421705890247 397.8042263851414L896.8421705890247 397.8042263851414L896.8421705890247 452.21128976166233Q896.8421705890247 456.4680081916388 898.1671094380904 458.3003704297082Q899.4920482871557 460.1045424794995 903.7487667171323 460.5273953036694L903.7487667171323 460.5273953036694L909.2176632430624 461.11938925750724Q911.4446881170236 461.54224208167705 911.4446881170236 463.37460431974637L911.4446881170236 463.37460431974637Q911.4446881170236 465.79896051165355 908.4001477830006 465.79896051165355L908.4001477830006 465.79896051165355ZM1051.2962121641326 465.79896051165355L1016.9887530298186 465.79896051165355Q1013.9442126957956 465.79896051165355 1013.9442126957956 463.5719356376923L1013.9442126957956 463.5719356376923Q1013.9442126957956 461.73957339962294 1016.5940903939268 461.11938925750724L1016.5940903939268 461.11938925750724L1019.018446585834 460.72472662161533Q1023.3033552040883 459.9072111615536 1024.600103864876 458.18760967659625Q1025.9250427139414 456.4680081916388 1025.9250427139414 452.21128976166233L1025.9250427139414 452.21128976166233L1025.9250427139414 383.99103412892623Q1025.9250427139414 380.3544998410655 1024.8256253711 379.029560992Q1023.6980178399803 377.70462214293445 1020.8508088239032 377.30995950704255L1020.8508088239032 377.30995950704255L1016.5940903939268 376.6897753649268Q1013.9442126957956 376.49244404698084 1013.9442126957956 374.46275049096556L1013.9442126957956 374.46275049096556Q1013.9442126957956 372.82771957084213 1017.2142745360425 372.23572561700433L1017.2142745360425 372.23572561700433Q1023.5006865220342 371.2208788389967 1026.8553189271151 368.9938539650355Q1030.1817611439178 366.73863890279625 1033.8464856200567 363.4967672508274L1033.8464856200567 363.4967672508274Q1035.6788478581261 361.66440501275804 1036.8910259540796 361.66440501275804L1036.8910259540796 361.66440501275804Q1038.723388192149 361.66440501275804 1038.723388192149 364.1169513929432L1038.723388192149 364.1169513929432L1038.723388192149 373.250572395012Q1038.723388192149 374.6600818089115 1039.9355662881026 375.36483651586127Q1041.147744384056 376.097781411089 1042.5854439862337 374.6600818089115L1042.5854439862337 374.6600818089115Q1050.9015495282406 366.73863890279625 1057.0752007611206 363.9196200749973Q1063.2770421822784 361.07241105892024 1069.5634541682703 361.07241105892024L1069.5634541682703 361.07241105892024Q1075.4552035183701 361.07241105892024 1080.0220140194044 364.2015219577772Q1084.588824520439 367.35882304491207 1086.8158493944002 373.64523503090385L1086.8158493944002 373.64523503090385Q1087.4360335365159 375.2802659510273 1088.9583037035275 375.5903580220852Q1090.4805738705388 375.8722599048651 1091.8900832844383 374.46275049096556L1091.8900832844383 374.46275049096556Q1100.2061888264454 366.73863890279625 1106.2952694944913 363.9196200749973Q1112.3843501625372 361.07241105892024 1118.698952336807 361.07241105892024L1118.698952336807 361.07241105892024Q1127.21238919676 361.07241105892024 1132.5967151578561 367.471583798024Q1137.9810411189521 373.8425663488498 1137.9810411189521 386.2462491911654L1137.9810411189521 386.2462491911654L1137.9810411189521 452.21128976166233Q1137.9810411189521 456.4680081916388 1139.2777897797398 458.18760967659625Q1140.6027286288054 459.9072111615536 1144.8594470587818 460.5273953036694L1144.8594470587818 460.5273953036694L1149.3416869949822 461.11938925750724Q1151.5687118689434 461.54224208167705 1151.5687118689434 463.5719356376923L1151.5687118689434 463.5719356376923Q1151.5687118689434 465.79896051165355 1149.1443556770364 465.79896051165355L1149.1443556770364 465.79896051165355L1114.4140437185524 465.79896051165355Q1111.5950248907534 465.79896051165355 1111.5950248907534 463.5719356376923L1111.5950248907534 463.5719356376923Q1111.5950248907534 461.54224208167705 1113.8220497647146 461.11938925750724L1113.8220497647146 461.11938925750724L1116.6692587807916 460.72472662161533Q1121.32063984666 460.1045424794995 1122.7583394488374 458.3003704297082Q1124.1678488627372 456.4680081916388 1124.1678488627372 452.21128976166233L1124.1678488627372 452.21128976166233L1124.1678488627372 388.47327406512665Q1124.1678488627372 378.52213760299617 1120.6158851397104 374.46275049096556Q1117.0639214166836 370.40336337893496 1110.9748407486377 370.40336337893496L1110.9748407486377 370.40336337893496Q1104.8857600805918 370.40336337893496 1099.9242869436655 374.1526584199077Q1094.9346236184613 377.90195346088035 1091.8900832844383 384.1037948820382Q1088.8455429504154 390.305636303196 1088.8455429504154 397.8042263851414L1088.8455429504154 397.8042263851414L1088.8455429504154 452.21128976166233Q1088.8455429504154 456.4680081916388 1090.283242552593 458.18760967659625Q1091.6927519664923 459.9072111615536 1096.1468017144148 460.5273953036694L1096.1468017144148 460.5273953036694L1100.6290416506154 461.11938925750724Q1102.8560665245764 461.54224208167705 1102.8560665245764 463.5719356376923L1102.8560665245764 463.5719356376923Q1102.8560665245764 465.79896051165355 1100.4317103326694 465.79896051165355L1100.4317103326694 465.79896051165355L1065.9269198804095 465.79896051165355Q1063.0797108643324 465.79896051165355 1063.0797108643324 463.5719356376923L1063.0797108643324 463.5719356376923Q1063.0797108643324 461.54224208167705 1065.3067357382936 461.11938925750724L1065.3067357382936 461.11938925750724L1068.1539447543705 460.72472662161533Q1072.4106631843472 460.1045424794995 1073.7356020334128 458.3003704297082Q1075.060540882478 456.4680081916388 1075.060540882478 452.21128976166233L1075.060540882478 452.21128976166233L1075.060540882478 388.47327406512665Q1075.060540882478 378.52213760299617 1071.5085771594513 374.46275049096556Q1067.9566134364247 370.40336337893496 1061.8675327683789 370.40336337893496L1061.8675327683789 370.40336337893496Q1055.778452100333 370.40336337893496 1050.7887887751288 374.1526584199077Q1045.8273156382024 377.90195346088035 1042.7827753041795 384.1037948820382Q1039.7382349701566 390.305636303196 1039.7382349701566 397.8042263851414L1039.7382349701566 397.8042263851414L1039.7382349701566 452.21128976166233Q1039.7382349701566 456.4680081916388 1041.0631738192221 458.3003704297082Q1042.3599224800098 460.1045424794995 1046.6448310982641 460.5273953036694L1046.6448310982641 460.5273953036694L1052.1137276241943 461.11938925750724Q1054.3407524981556 461.54224208167705 1054.3407524981556 463.37460431974637L1054.3407524981556 463.37460431974637Q1054.3407524981556 465.79896051165355 1051.2962121641326 465.79896051165355L1051.2962121641326 465.79896051165355ZM1192.7827671313648 467.6313227497229L1192.7827671313648 467.6313227497229Q1183.0289619871803 467.6313227497229 1175.3048503990112 461.11938925750724Q1167.6089289991198 454.63564595356945 1163.0421184980855 442.7675766885356Q1158.475307997051 430.89950742350175 1158.475307997051 415.25395292921723L1158.475307997051 415.25395292921723Q1158.475307997051 399.2137357990409 1163.1266890629195 387.03557446294917Q1167.8062603170658 374.8574131268574 1175.925034541127 367.97900718702783Q1184.043808765188 361.07241105892024 1193.9949452273186 361.07241105892024L1193.9949452273186 361.07241105892024Q1205.9757752454643 361.07241105892024 1213.3616045742979 370.9107867679388Q1220.775624091409 380.74916247695734 1220.775624091409 402.8784602751796L1220.775624091409 402.8784602751796Q1220.775624091409 409.5877250853413 1215.701390201371 409.5877250853413L1215.701390201371 409.5877250853413L1177.1372126370804 409.5877250853413Q1173.0778255250498 409.5877250853413 1173.0778255250498 414.2391061512096L1173.0778255250498 414.2391061512096Q1173.0778255250498 435.7482198073161 1179.3642375110417 446.5168717295083Q1185.6788396853112 457.2855236517005 1195.4044546412179 457.2855236517005L1195.4044546412179 457.2855236517005Q1203.1285662293874 457.2855236517005 1208.0054688014795 451.78843693749246Q1212.8541811852938 446.3195404115624 1215.898721519317 433.323863615409L1215.898721519317 433.323863615409Q1216.5189056614327 431.0968387414477 1218.5485992174479 431.0968387414477L1218.5485992174479 431.0968387414477Q1220.972955409355 431.0968387414477 1220.380961455517 435.1562258534783L1220.380961455517 435.1562258534783Q1217.1390898035484 453.22613653966994 1210.0351623574948 460.4146345505575Q1202.9312349114414 467.6313227497229 1192.7827671313648 467.6313227497229ZM1176.5452186832426 404.513491195303L1176.5452186832426 404.513491195303L1197.0394855613413 404.513491195303Q1206.765100517248 404.513491195303 1206.765100517248 394.3650234152266L1206.765100517248 394.3650234152266Q1206.765100517248 381.1720153011272 1203.5232288652792 373.64523503090385Q1200.2813572133105 366.1466449489585 1193.7976139093726 366.1466449489585L1193.7976139093726 366.1466449489585Q1185.8761710032572 366.1466449489585 1180.4918450421612 375.2802659510273Q1175.1075190810652 384.4138869530961 1173.5006783492197 401.24342935505615L1173.5006783492197 401.24342935505615Q1173.0778255250498 404.513491195303 1176.5452186832426 404.513491195303ZM1257.1127767817384 375.2802659510273L1257.1127767817384 375.2802659510273Q1265.4288823237455 361.07241105892024 1277.2123810239455 361.07241105892024L1277.2123810239455 361.07241105892024Q1283.893455645829 361.07241105892024 1287.1635174860758 365.0190374178389Q1290.4053891380447 368.9938539650355 1290.4053891380447 373.8425663488498L1290.4053891380447 373.8425663488498Q1290.4053891380447 377.70462214293445 1288.4602661468634 380.1571685231196Q1286.54333334396 382.5815247150267 1282.4839462319294 382.5815247150267L1282.4839462319294 382.5815247150267Q1279.2420745799607 382.5815247150267 1277.719804412949 381.05925454801525Q1276.1975342459377 379.5369843810038 1275.267258032764 377.5072908249885Q1274.3651720078683 375.4775972689732 1273.1529939119146 373.95532710196176Q1271.9408158159613 372.4330569349503 1269.0936067998841 372.4330569349503L1269.0936067998841 372.4330569349503Q1265.4288823237455 372.4330569349503 1262.1870106717765 376.80253611803874Q1258.9451390198078 381.1720153011272 1256.8026847106805 388.47327406512665Q1254.6884205898314 395.7745328291261 1254.6884205898314 405.1054851491408L1254.6884205898314 405.1054851491408L1254.6884205898314 452.21128976166233Q1254.6884205898314 456.4680081916388 1255.9851692506188 458.3003704297082Q1257.3101080996844 460.1045424794995 1261.5668265296608 460.5273953036694L1261.5668265296608 460.5273953036694L1267.0639132438687 461.11938925750724Q1269.2909381178301 461.54224208167705 1269.2909381178301 463.37460431974637L1269.2909381178301 463.37460431974637Q1269.2909381178301 465.79896051165355 1266.2463977838072 465.79896051165355L1266.2463977838072 465.79896051165355L1231.9389386494931 465.79896051165355Q1228.8943983154704 465.79896051165355 1228.8943983154704 463.5719356376923L1228.8943983154704 463.5719356376923Q1228.8943983154704 461.73957339962294 1231.5442760136013 461.11938925750724L1231.5442760136013 461.11938925750724L1233.9686322055086 460.72472662161533Q1238.225350635485 459.9072111615536 1239.5502894845504 458.18760967659625Q1240.8752283336162 456.4680081916388 1240.8752283336162 452.21128976166233L1240.8752283336162 452.21128976166233L1240.8752283336162 383.99103412892623Q1240.8752283336162 380.3544998410655 1239.7476208024964 379.029560992Q1238.648203459655 377.70462214293445 1235.8009944435778 377.30995950704255L1235.8009944435778 377.30995950704255L1231.5442760136013 376.6897753649268Q1228.8943983154704 376.49244404698084 1228.8943983154704 374.46275049096556L1228.8943983154704 374.46275049096556Q1228.8943983154704 372.82771957084213 1232.1362699674391 372.23572561700433L1232.1362699674391 372.23572561700433Q1238.450872141709 371.2208788389967 1241.7773143585118 368.9938539650355Q1245.1319467635926 366.73863890279625 1248.7966712397313 363.4967672508274L1248.7966712397313 363.4967672508274Q1250.6290334778007 361.66440501275804 1251.8412115737542 361.66440501275804L1251.8412115737542 361.66440501275804Q1253.6735738118236 361.66440501275804 1253.6735738118236 364.1169513929432L1253.6735738118236 364.1169513929432L1253.6735738118236 375.0829346330813Q1253.6735738118236 376.49244404698084 1254.8857519077771 376.80253611803874Q1256.0979300037307 377.11262818909665 1257.1127767817384 375.2802659510273ZM1326.9398731463198 467.6313227497229L1326.9398731463198 467.6313227497229Q1318.0035834621972 467.6313227497229 1310.7868952630315 461.626812646511Q1303.598397252144 455.65049273157706 1299.3416788221675 444.487178173493Q1295.056770203913 433.323863615409 1295.056770203913 417.9038306273484L1295.056770203913 417.9038306273484Q1295.056770203913 400.6514354012184 1300.2437648470632 387.8530899230109Q1305.4307594902134 375.0829346330813 1314.3388589860583 368.0635777518618Q1323.2751486701814 361.07241105892024 1334.2411319103194 361.07241105892024L1334.2411319103194 361.07241105892024Q1343.572084230334 361.07241105892024 1348.8436494383182 364.708945346781L1348.8436494383182 364.708945346781Q1350.8733429943336 366.1466449489585 1350.8733429943336 369.1911852829814L1350.8733429943336 369.1911852829814L1351.2961958185033 393.94217059105677Q1351.2961958185033 396.9867109250797 1348.8436494383182 396.9867109250797L1348.8436494383182 396.9867109250797Q1346.616624564357 396.9867109250797 1346.0246306105191 394.3650234152266L1346.0246306105191 394.3650234152266Q1343.1774215944422 383.20170885714253 1340.5275438963113 377.11262818909665Q1337.9058563864583 371.0235475210508 1335.058647370381 368.6837618939776Q1332.211438354304 366.3439762669044 1328.7722353843892 366.3439762669044L1328.7722353843892 366.3439762669044Q1324.7128482723588 366.3439762669044 1320.3433690892703 371.0235475210508Q1315.9738899061817 375.6749285869191 1313.0421103252709 386.13348843805346Q1310.0821405560819 396.5920482891878 1310.0821405560819 413.6471121973718L1310.0821405560819 413.6471121973718Q1310.0821405560819 435.3535571714242 1315.6637978351237 446.3195404115624Q1321.245455114166 457.2855236517005 1330.1817447982887 457.2855236517005L1330.1817447982887 457.2855236517005Q1337.2856722443423 457.2855236517005 1342.0498140633226 451.3937743016006Q1346.813955882303 445.50202495150063 1350.2813490404958 430.08199196344003L1350.2813490404958 430.08199196344003Q1350.8733429943336 427.85496708947886 1352.7057052324028 427.85496708947886L1352.7057052324028 427.85496708947886Q1355.1582516125882 427.85496708947886 1354.538067470472 431.91435420150947L1354.538067470472 431.91435420150947Q1352.311042596511 446.12220909361645 1348.3362260493145 453.9308912466197Q1344.3895996903957 461.73957339962294 1339.0052737292997 464.6713529805339Q1333.6209477682035 467.6313227497229 1326.9398731463198 467.6313227497229ZM1398.176478924801 467.6313227497229L1398.176478924801 467.6313227497229Q1388.4226737806162 467.6313227497229 1380.726752380725 461.11938925750724Q1373.0026407925557 454.63564595356945 1368.4358302915214 442.7675766885356Q1363.869019790487 430.89950742350175 1363.869019790487 415.25395292921723L1363.869019790487 415.25395292921723Q1363.869019790487 399.2137357990409 1368.5485910446332 387.03557446294917Q1373.1999721105017 374.8574131268574 1381.3187463345628 367.97900718702783Q1389.4375205586239 361.07241105892024 1399.3886570207546 361.07241105892024L1399.3886570207546 361.07241105892024Q1411.3694870389004 361.07241105892024 1418.7835065560116 370.9107867679388Q1426.197526073123 380.74916247695734 1426.197526073123 402.8784602751796L1426.197526073123 402.8784602751796Q1426.197526073123 409.5877250853413 1421.123292183085 409.5877250853413L1421.123292183085 409.5877250853413L1382.5591146187944 409.5877250853413Q1378.4997275067637 409.5877250853413 1378.4997275067637 414.2391061512096L1378.4997275067637 414.2391061512096Q1378.4997275067637 435.7482198073161 1384.7861394927556 446.5168717295083Q1391.0725514787473 457.2855236517005 1400.826356622932 457.2855236517005L1400.826356622932 457.2855236517005Q1408.5222780228232 457.2855236517005 1413.3991805949154 451.78843693749246Q1418.276083167008 446.3195404115624 1421.3206235010307 433.323863615409L1421.3206235010307 433.323863615409Q1421.9126174548687 431.0968387414477 1423.942311010884 431.0968387414477L1423.942311010884 431.0968387414477Q1426.3948573910689 431.0968387414477 1425.7746732489531 435.1562258534783L1425.7746732489531 435.1562258534783Q1422.5328015969844 453.22613653966994 1415.4288741509308 460.4146345505575Q1408.3249467048772 467.6313227497229 1398.176478924801 467.6313227497229ZM1381.9389304766787 404.513491195303L1381.9389304766787 404.513491195303L1402.4331973547773 404.513491195303Q1412.187002498962 404.513491195303 1412.187002498962 394.3650234152266L1412.187002498962 394.3650234152266Q1412.187002498962 381.1720153011272 1408.9451308469932 373.64523503090385Q1405.675069006746 366.1466449489585 1399.1913257028086 366.1466449489585L1399.1913257028086 366.1466449489585Q1391.2698827966933 366.1466449489585 1385.885556835597 375.2802659510273Q1380.5294210627792 384.4138869530961 1378.8943901426555 401.24342935505615L1378.8943901426555 401.24342935505615Q1378.4997275067637 404.513491195303 1381.9389304766787 404.513491195303Z " fill="#ffffff" transform="matrix(0.6135194632183445,0,0,0.6135194632183445,0,59.11299363348358)"/></g></svg>